<svg xmlns="http://www.w3.org/2000/svg" viewBox="162.88 198.41 426.22 390.7">
  <path d="M529.68 317.75c.16-2.31.23-4.59.23-6.86 0-62.02-50.46-112.48-112.48-112.48-46.63 0-88.37 29.43-104.88 71.98a100.84 100.84 0 0 0-49.03-12.78c-55.5 0-100.64 45.14-100.64 100.64 0 55.48 45.14 100.64 100.64 100.64h100.64v89.81l-50.83-50.83a11.81 11.81 0 0 0-16.74 0 11.84 11.84 0 0 0 0 16.74l71.02 71.03a11.8 11.8 0 0 0 1.83 1.49c.27.17.55.3.82.44.4.23.79.47 1.22.64.37.16.75.25 1.13.36.36.1.7.24 1.07.31a11.79 11.79 0 0 0 4.64 0c.34-.07.66-.2 1-.29.4-.11.81-.2 1.2-.37.4-.17.77-.4 1.14-.6.3-.16.61-.3.9-.49.65-.44 1.26-.93 1.82-1.49l71.02-71.02a11.84 11.84 0 1 0-16.74-16.75l-50.83 50.83v-89.81h130.23c39.17 0 71.04-31.87 71.04-71.04 0-35.22-25.75-64.54-59.43-70.1zm-11.6 117.45H263.51c-42.43 0-76.96-34.53-76.96-76.96 0-42.44 34.53-76.95 76.96-76.95 17.74 0 34.43 5.9 48.26 17.06l14.88 12 4.12-18.67c8.9-40.32 45.34-69.6 86.66-69.6 48.96 0 88.8 39.83 88.8 88.8 0 5-.5 10.12-1.48 15.68l-2.5 13.92h15.8a47.41 47.41 0 0 1 47.37 47.36 47.41 47.41 0 0 1-47.36 47.36z"/>
</svg>
