<svg xmlns="http://www.w3.org/2000/svg" viewBox="221.7 221.62 367.92 308.78">
  <path d="M376.08 530.39a154 154 0 0 0 109.22-45.16 11.84 11.84 0 1 0-16.74-16.75c-51 50.98-133.96 50.99-184.95 0-51-51-51-133.96 0-184.95 50.99-50.99 133.95-51 184.95 0a11.84 11.84 0 1 0 16.74-16.74c-60.23-60.23-158.21-60.22-218.43 0-60.23 60.22-60.23 158.21 0 218.44a153.97 153.97 0 0 0 109.21 45.17z"/>
  <path d="m586.13 367.62-50.41-50.41a11.84 11.84 0 1 0-16.75 16.74l30.22 30.22H376.08a11.84 11.84 0 1 0 0 23.67h173.1l-30.2 30.22a11.84 11.84 0 1 0 16.74 16.74l50.42-50.42a11.83 11.83 0 0 0-.01-16.76z"/>
</svg>
