<svg xmlns="http://www.w3.org/2000/svg" viewBox="271.81 271.81 208.38 208.38">
  <path d="M470.72 366.53a9.47 9.47 0 0 0-9.47 9.47v75.77a9.47 9.47 0 0 1-9.48 9.47H300.22a9.47 9.47 0 0 1-9.46-9.47V300.22a9.47 9.47 0 0 1 9.46-9.47H376a9.47 9.47 0 1 0 0-18.94h-75.78a28.41 28.41 0 0 0-28.41 28.41v151.55a28.42 28.42 0 0 0 28.41 28.42h151.55a28.42 28.42 0 0 0 28.42-28.42V376a9.46 9.46 0 0 0-9.47-9.47z"/>
  <path d="M423.36 290.76h25.1l-69.33 69.43a9.47 9.47 0 0 0 0 13.35 9.47 9.47 0 0 0 13.35 0l68.77-68.57v23.68a9.46 9.46 0 0 0 16.17 6.7 9.46 9.46 0 0 0 2.77-6.7v-47.36a9.47 9.47 0 0 0-9.47-9.47h-47.36a9.47 9.47 0 0 0 0 18.94z"/>
</svg>
