<svg xmlns="http://www.w3.org/2000/svg" viewBox="143.95 158.08 464.14 435.76">
  <path d="M545.88 358.15a11.83 11.83 0 0 0-10.04-5.59H216.22c-4.08 0-7.88 2.12-10.04 5.59l-60.43 97.03a11.83 11.83 0 0 0 10.04 18.1h52.1v83.96a36.71 36.71 0 0 0 36.6 36.6h263.03a36.7 36.7 0 0 0 36.66-36.64v-83.93h52.1a11.84 11.84 0 0 0 10.03-18.09zM177.1 449.6l45.7-73.36h131.89l-45.7 73.36zm187.06 120.57H244.49a12.98 12.98 0 0 1-12.98-12.97v-83.93h84.07c4.08 0 7.87-2.11 10.03-5.58l38.55-61.85zm156.28-12.98c0 7.15-5.78 12.95-12.93 12.98H387.83V405.84l38.5 61.9a11.85 11.85 0 0 0 10.05 5.59h84.06zM443.01 449.6l-45.7-73.36h131.9l45.7 73.36zm-80.98-130.85a21.7 21.7 0 0 0 15.4-6.35l76.33-76.34a21.79 21.79 0 0 0 0-30.78l-17.28-17.29a21.73 21.73 0 0 0-30.74 0l-43.66 43.67-15.73-15.73a21.75 21.75 0 0 0-30.78 0l-17.28 17.29a21.8 21.8 0 0 0 0 30.78l48.4 48.4a21.7 21.7 0 0 0 15.34 6.35zm-31.11-84.82 22.77 22.73a11.84 11.84 0 0 0 16.77 0L421.13 206l14.54 14.68-73.64 73.6-45.7-45.7zm175.93 9.71a11.83 11.83 0 0 0 11.84 11.84h26.52a11.84 11.84 0 1 0 0-23.68h-26.52c-6.54 0-11.84 5.3-11.84 11.84zm-19.27 63.31 18.94 18.94a11.86 11.86 0 0 0 16.77-16.76l-18.94-18.94a11.86 11.86 0 0 0-16.77 16.76zm18.75-145.39-18.95 18.95a11.86 11.86 0 0 0 16.77 16.76l18.94-18.94a11.85 11.85 0 1 0-16.76-16.77zm-311.38 82.08a11.85 11.85 0 0 0 11.84 11.84h26.52a11.84 11.84 0 1 0 0-23.68h-26.52c-6.54 0-11.84 5.3-11.84 11.84zm50.72-82.08a11.86 11.86 0 0 0-16.77 16.77l18.95 18.94a11.85 11.85 0 1 0 16.76-16.77zm2.04 128.67-18.94 18.94a11.86 11.86 0 0 0 16.76 16.77L264.49 307a11.86 11.86 0 0 0-16.77-16.77z"/>
</svg>
