<svg xmlns="http://www.w3.org/2000/svg" viewBox="139.22 139.21 473.56 473.56">
  <path d="M257.61 359.09h-.24a16.9 16.9 0 1 0 0 33.83h237.25a16.9 16.9 0 1 0 0-33.83h-.25z"/>
  <path d="M392.92 257.61v-.24a16.9 16.9 0 1 0-33.83 0v.25-.01 237.01a16.9 16.9 0 1 0 33.83 0v-.25.02z"/>
  <path d="M376 139.21c-130.57 0-236.78 106.21-236.78 236.78 0 130.56 106.21 236.78 236.78 236.78s236.78-106.21 236.78-236.78c0-130.56-106.21-236.78-236.78-236.78zm0 33.83c112.3 0 202.96 90.68 202.96 202.96S488.3 578.96 376 578.96c-112.3 0-202.96-90.66-202.96-202.96 0-112.3 90.66-202.96 202.96-202.96z"/>
</svg>
