<svg xmlns="http://www.w3.org/2000/svg" viewBox="0 0 1052.84 582">
  <defs>
    <linearGradient id="a" x1="976.63" x2="0" y1="291" y2="291" gradientUnits="userSpaceOnUse">
      <stop offset="0" stop-color="#f7f6fb"/>
      <stop offset=".17" stop-color="#e8e4f4"/>
      <stop offset=".4" stop-color="#dad4ef"/>
      <stop offset=".66" stop-color="#d2cbec"/>
      <stop offset="1" stop-color="#d0c8eb"/>
    </linearGradient>
  </defs>
  <path fill="url(#a)" d="M976.63 582 0 292.63 975.63 0"/>
  <path fill="none" stroke="#000" stroke-linecap="round" stroke-linejoin="round" stroke-width="11" d="M354.32 393.14c61.76-105.49-1.37-202-1.37-202"/>
  <path d="M373.35 239.16c-1.13 1.71-29.96 45.23 2.19 102.22l5.88-47.69-8.07-54.52ZM644.63 99.14l-2 383.86 118 35 .92-39.86-88.13-25-.83-362.18-27.96 8.18zM0 292.63l352.75-106.5s-61.47 99.86 2.36 213L0 292.63Zm507.21-152.16L425.63 165v253.88l21 6.25-.37-133 10.21-2 27.5 146 23.24 7.06-30.31-159.06 30.31-8.17V140.47Zm-18.52 114.08-44 11.59V182.4l43.22-12.26.79 84.41Zm36.94-119.51-1 312.96 91 27-.89-366.89-89.11 26.93Zm64.42 299.1-43.22-11.32V160.14l43.22-10v284ZM952.63 7 799.91 52.72l.25 477.1 31.48 9.18-1.63-245.08 21.64-5.55 64.21 275.64L952.65 575l-64.24-296.05 64.24-17.31V7Zm-28.97 220.62-95.78 25.94V80.96l95.78-29.93v176.59Z"/>
  <path fill="#f7f6fb" d="M976.63 582c172.06-300.27-1-582-1-582l1 582Z"/>
  <path fill="none" stroke="#d0c8eb" stroke-miterlimit="10" stroke-width="30" d="M235.14 291c0 51.91-26.16 94-58.42 94s-58.42-42.09-58.42-94 26.16-94 58.42-94 58.42 42.09 58.42 94Zm-58.67 98 .5 93.5-.5-93.5Z"/>
  <path d="m177.55 239.38 76.82-23.54 34.92 88.64-33.69 64.81-68.74-21.24-9.31-108.67z"/>
</svg>
